# xmcd
#
# Track frame offsets:
#	150
#	11020
#	24114
#	39196
#	56820
#	69386
#	83273
#	96386
#	109734
#	127312
#	146207
#
# Disc length: 2140 seconds
#
# Revision: 1
# Processed by: cddbd v1.5.2PL0 Copyright (c) Steve Scherf et al.
# Submitted via: audiograbber 1.83.01
#
DISCID=8e085a0b
DTITLE=Merle Haggard - Working In Tennessee
DYEAR=2011
DGENRE=Country
TTITLE0=Working In Tennessee
TTITLE1=Down On The Houseboat
TTITLE2=Cocaine Blues
TTITLE3=What I Hate
TTITLE4=Sometimes I Dream
TTITLE5=Under The Bridge
TTITLE6=Too Much Boogie Woogie
TTITLE7=Truck Driver's Blues
TTITLE8=Laugh It Off
TTITLE9=Workin' Man Blues (featuring Willie Nelson and Ben Haggard)
TTITLE10=Jackson (Duet with Theresa Haggard)
EXTD=
EXTT0=
EXTT1=
EXTT2=
EXTT3=
EXTT4=
EXTT5=
EXTT6=
EXTT7=
EXTT8=
EXTT9=
EXTT10=
PLAYORDER=
